<svg version="1.0" xmlns="http://www.w3.org/2000/svg"
 width="541.000000pt" height="148.000000pt" viewBox="0 0 541.000000 148.000000"
 preserveAspectRatio="xMidYMid meet">

<g transform="translate(0.000000,148.000000) scale(0.100000,-0.100000)"
fill="#364F6B" stroke="none">
<path d="M474 1422 c-153 -53 -294 -248 -358 -496 -28 -107 -35 -260 -15 -299
10 -17 9 -23 -6 -32 -35 -20 -75 -65 -75 -83 0 -10 9 -27 20 -37 19 -17 21
-17 54 9 19 14 37 26 39 26 3 0 18 -24 35 -52 39 -70 134 -158 210 -197 64
-32 210 -71 265 -71 18 1 68 9 112 20 l80 19 51 -39 c79 -59 224 -136 305
-162 92 -28 219 -30 296 -4 55 18 133 83 133 110 0 22 -12 20 -72 -10 -45 -23
-61 -26 -123 -22 -88 6 -200 50 -347 137 l-108 64 49 53 c57 62 114 174 136
265 19 81 19 243 0 334 -8 39 -36 113 -62 165 -81 162 -216 270 -381 306 -90
18 -176 17 -238 -4z m144 -76 c67 -11 183 -77 247 -140 70 -69 135 -190 156
-291 17 -84 14 -231 -6 -300 -24 -83 -89 -182 -142 -215 l-44 -28 -47 25 c-26
15 -71 41 -99 60 -46 30 -120 67 -233 116 -49 21 -105 35 -177 43 l-62 6 -10
50 c-41 188 48 464 193 596 53 49 140 93 171 87 11 -2 35 -6 53 -9z m-220
-857 c63 -27 262 -150 262 -162 0 -13 -111 -1 -176 18 -72 21 -155 78 -194
131 l-33 47 47 -7 c26 -4 68 -16 94 -27z"/>
<path d="M3160 1344 c-58 -5 -267 -41 -348 -60 -104 -24 -187 -58 -240 -100
-59 -46 -82 -80 -82 -123 0 -26 4 -31 25 -31 13 0 58 16 99 35 137 64 250 94
514 134 123 19 337 14 431 -9 169 -42 241 -90 241 -158 0 -54 -54 -109 -135
-140 -103 -40 -279 -72 -432 -79 l-143 -6 0 75 c0 88 -19 151 -57 186 -25 23
-27 24 -40 6 -47 -65 -61 -236 -38 -474 19 -195 26 -215 68 -178 36 32 57 119
57 240 l0 98 44 0 c24 0 113 -9 197 -20 262 -35 426 -100 457 -182 37 -96 -46
-160 -253 -196 -130 -22 -416 -21 -655 2 -183 18 -198 18 -251 3 -102 -30 -84
-74 44 -106 165 -43 548 -70 728 -52 216 21 340 58 422 125 74 60 92 96 92
182 0 60 -4 77 -27 111 -31 47 -106 100 -165 116 -24 6 -43 14 -43 17 0 3 16
12 35 19 47 17 134 76 168 114 39 44 57 91 57 149 0 134 -95 218 -311 274 -87
22 -129 27 -259 29 -85 2 -175 1 -200 -1z"/>
<path d="M4964 1113 c-12 -2 -31 -14 -42 -26 -19 -21 -21 -37 -24 -247 -4
-252 -10 -275 -82 -355 -29 -33 -37 -37 -46 -25 -12 19 -13 112 0 165 11 49 3
59 -46 57 -47 -2 -88 -39 -110 -101 -34 -90 -38 -67 -13 62 14 76 12 105 -12
117 -48 26 -109 -17 -109 -77 0 -21 -5 -56 -11 -78 -20 -74 -78 -198 -93 -199
-20 -2 -26 63 -15 177 11 110 11 119 -7 138 -15 17 -27 20 -57 16 -31 -4 -42
-1 -62 19 -34 34 -106 34 -156 0 -79 -54 -122 -242 -85 -371 24 -81 68 -125
127 -125 51 0 100 33 119 82 8 18 14 34 16 36 1 2 13 -8 27 -22 41 -41 93 -36
139 12 19 20 40 46 46 57 10 17 11 14 12 -20 0 -49 14 -65 55 -65 45 0 61 18
73 82 6 31 19 73 28 95 19 42 17 47 30 -54 15 -119 134 -124 206 -8 l18 30 -1
-93 c-1 -58 3 -98 10 -105 16 -16 81 -14 92 4 5 7 9 64 9 126 0 109 1 112 26
132 15 12 30 21 34 21 4 0 9 -40 12 -90 4 -83 6 -92 34 -121 26 -27 34 -30 72
-26 61 7 99 48 155 165 56 119 60 137 29 137 -19 0 -32 -17 -75 -105 -81 -163
-112 -163 -103 2 6 94 6 97 -16 100 -13 2 -44 -2 -71 -8 -55 -14 -53 -6 8 36
24 17 59 44 77 60 18 17 35 30 39 30 4 0 14 12 24 26 16 24 16 27 -1 45 -33
37 -114 13 -132 -39 -11 -31 -102 -156 -108 -149 -3 2 1 109 7 237 9 195 9
234 -2 241 -8 5 -16 8 -19 7 -3 0 -15 -3 -26 -5z m-737 -453 c37 -110 -21
-330 -88 -330 -14 0 -25 12 -36 38 -19 46 -13 184 12 255 29 82 90 102 112 37z"/>
<path d="M1819 832 c-47 -38 -78 -96 -108 -207 -32 -120 -63 -196 -85 -214
-34 -29 -45 53 -25 195 10 71 9 79 -9 96 -20 20 -77 28 -91 12 -5 -5 -28 -73
-51 -152 -47 -154 -61 -184 -80 -165 -10 9 -10 32 -1 100 38 291 40 273 -30
273 -54 0 -66 -20 -74 -130 -17 -243 -6 -312 52 -339 52 -24 103 20 142 124
l18 47 7 -42 c14 -91 114 -133 170 -72 14 15 32 36 40 47 14 18 15 18 16 2 0
-29 37 -93 64 -110 33 -22 117 -22 159 0 75 38 149 140 186 256 11 32 16 37
34 31 54 -17 141 -105 152 -153 8 -36 -9 -71 -33 -71 -30 0 -42 21 -42 72 0
53 -22 75 -63 62 -41 -12 -57 -35 -57 -80 0 -77 69 -131 155 -121 93 10 163
88 149 164 -10 52 -90 129 -150 144 -25 7 -43 14 -40 16 2 3 44 13 92 24 49
10 95 25 102 33 20 20 8 60 -24 81 -26 17 -29 17 -93 -10 -36 -15 -94 -30
-129 -33 -70 -5 -92 -23 -92 -77 0 -28 -43 -134 -59 -145 -4 -3 -17 -22 -29
-42 -31 -50 -88 -98 -117 -98 -44 0 -76 86 -61 164 6 31 11 36 44 42 123 22
168 91 123 189 -41 90 -110 127 -162 87z m85 -78 c3 -9 6 -33 6 -54 0 -41 -26
-70 -62 -70 -22 0 -21 -5 -2 61 22 75 44 99 58 63z"/>
</g>
</svg>
